<svg aria-hidden="true" style="position: absolute; width: 0; height: 0; overflow: hidden;" version="1.1" xmlns="http://www.w3.org/2000/svg" xmlns:xlink="http://www.w3.org/1999/xlink">
<defs>
<symbol id="icon-logo_iss_w" viewBox="0 0 107 32">
<path fill="#fff" style="fill: var(--color1, #fff)" d="M65.076 10.24h-0.623v-5.149h0.623v5.149z"></path>
<path fill="#fff" style="fill: var(--color1, #fff)" d="M67.261 7.916v2.323h-0.594v-3.862h0.573v0.604h0.051c0.090-0.196 0.228-0.354 0.412-0.474s0.423-0.18 0.714-0.18c0.261 0 0.49 0.053 0.686 0.16s0.348 0.267 0.457 0.483c0.109 0.215 0.164 0.487 0.164 0.816v2.454h-0.593v-2.414c0-0.303-0.079-0.54-0.237-0.71s-0.374-0.255-0.648-0.255c-0.19 0-0.359 0.041-0.507 0.123s-0.266 0.202-0.351 0.36c-0.086 0.157-0.128 0.348-0.128 0.573z"></path>
<path fill="#fff" style="fill: var(--color1, #fff)" d="M72.695 10.32c-0.322 0-0.606-0.082-0.852-0.245s-0.439-0.395-0.578-0.694c-0.139-0.299-0.209-0.653-0.209-1.062 0-0.406 0.069-0.758 0.209-1.056s0.333-0.529 0.581-0.691c0.248-0.162 0.534-0.244 0.86-0.244 0.251 0 0.45 0.041 0.597 0.124s0.259 0.177 0.337 0.282c0.078 0.105 0.138 0.191 0.182 0.258h0.050v-1.901h0.594v5.149h-0.573v-0.593h-0.071c-0.044 0.070-0.105 0.159-0.186 0.265s-0.196 0.201-0.344 0.284c-0.149 0.083-0.348 0.125-0.596 0.125zM72.775 9.787c0.238 0 0.44-0.063 0.604-0.188s0.289-0.298 0.374-0.521c0.085-0.222 0.128-0.479 0.128-0.77 0-0.288-0.042-0.541-0.126-0.758s-0.207-0.386-0.372-0.508c-0.164-0.121-0.367-0.182-0.608-0.182-0.251 0-0.46 0.064-0.627 0.192s-0.292 0.302-0.374 0.52c-0.083 0.219-0.124 0.464-0.124 0.736 0 0.275 0.042 0.524 0.127 0.748s0.21 0.401 0.377 0.533c0.167 0.132 0.374 0.197 0.622 0.197z"></path>
<path fill="#fff" style="fill: var(--color1, #fff)" d="M78.49 8.661v-2.283h0.593v3.862h-0.593v-0.654h-0.041c-0.090 0.196-0.231 0.363-0.422 0.499s-0.433 0.205-0.724 0.205c-0.241 0-0.456-0.053-0.644-0.16s-0.335-0.268-0.442-0.483c-0.107-0.216-0.161-0.488-0.161-0.816v-2.454h0.594v2.414c0 0.281 0.079 0.506 0.237 0.674s0.361 0.251 0.607 0.251c0.147 0 0.298-0.038 0.451-0.113s0.282-0.191 0.388-0.347c0.104-0.156 0.157-0.355 0.157-0.596z"></path>
<path fill="#fff" style="fill: var(--color1, #fff)" d="M83.33 7.243l-0.533 0.151c-0.033-0.089-0.082-0.175-0.147-0.26s-0.152-0.155-0.263-0.21c-0.111-0.055-0.252-0.083-0.424-0.083-0.237 0-0.433 0.054-0.59 0.162s-0.235 0.245-0.235 0.411c0 0.147 0.053 0.264 0.161 0.349s0.275 0.157 0.503 0.214l0.574 0.141c0.345 0.084 0.603 0.212 0.772 0.383s0.254 0.393 0.254 0.662c0 0.221-0.063 0.419-0.19 0.594s-0.302 0.312-0.529 0.412c-0.226 0.101-0.49 0.151-0.79 0.151-0.394 0-0.719-0.086-0.978-0.257s-0.422-0.42-0.491-0.749l0.563-0.141c0.054 0.208 0.155 0.364 0.305 0.468s0.347 0.156 0.59 0.156c0.277 0 0.497-0.059 0.66-0.177s0.244-0.26 0.244-0.426c0-0.134-0.047-0.247-0.141-0.338s-0.238-0.159-0.432-0.205l-0.644-0.151c-0.354-0.084-0.613-0.214-0.779-0.391s-0.248-0.399-0.248-0.665c0-0.218 0.062-0.411 0.185-0.578s0.292-0.299 0.505-0.395c0.214-0.095 0.456-0.143 0.728-0.143 0.382 0 0.683 0.084 0.901 0.251s0.374 0.389 0.466 0.664z"></path>
<path fill="#fff" style="fill: var(--color1, #fff)" d="M86.4 6.881h-2.002v-0.503h2.002zM84.982 5.452h0.594v3.681c0 0.168 0.025 0.293 0.074 0.376s0.113 0.138 0.191 0.166 0.16 0.042 0.248 0.042c0.065 0 0.119-0.004 0.161-0.011s0.076-0.014 0.101-0.019l0.121 0.533c-0.040 0.015-0.097 0.030-0.168 0.046s-0.164 0.024-0.274 0.024c-0.168 0-0.332-0.036-0.491-0.108-0.16-0.072-0.293-0.182-0.398-0.329s-0.157-0.334-0.157-0.558v-3.842z"></path>
<path fill="#fff" style="fill: var(--color1, #fff)" d="M87.72 10.24v-3.862h0.573v0.583h0.040c0.070-0.191 0.198-0.346 0.382-0.465s0.392-0.178 0.623-0.178c0.043 0 0.098 0.001 0.164 0.002s0.115 0.004 0.148 0.008v0.603c-0.020-0.005-0.066-0.013-0.137-0.024s-0.146-0.016-0.225-0.016c-0.187 0-0.354 0.039-0.501 0.117s-0.262 0.185-0.347 0.322c-0.085 0.137-0.127 0.292-0.127 0.467v2.444h-0.593z"></path>
<path fill="#fff" style="fill: var(--color1, #fff)" d="M91.082 5.734c-0.116 0-0.215-0.039-0.298-0.118s-0.124-0.174-0.124-0.284c0-0.111 0.041-0.205 0.124-0.284s0.182-0.118 0.298-0.118c0.116 0 0.215 0.040 0.298 0.118s0.124 0.173 0.124 0.284c0 0.11-0.041 0.205-0.124 0.284s-0.182 0.118-0.298 0.118zM90.78 6.378h0.594v3.862h-0.594zM90.78 10.24v-3.862z"></path>
<path fill="#fff" style="fill: var(--color1, #fff)" d="M94.020 10.33c-0.245 0-0.467-0.047-0.666-0.139s-0.358-0.228-0.475-0.405c-0.117-0.177-0.175-0.391-0.175-0.643 0-0.221 0.043-0.401 0.13-0.539s0.204-0.247 0.349-0.326c0.146-0.079 0.307-0.138 0.484-0.177s0.355-0.071 0.534-0.094c0.235-0.030 0.425-0.053 0.572-0.069s0.254-0.043 0.322-0.082c0.068-0.038 0.102-0.105 0.102-0.201v-0.020c0-0.248-0.068-0.441-0.202-0.578s-0.339-0.206-0.612-0.206c-0.283 0-0.506 0.062-0.667 0.186s-0.274 0.256-0.339 0.397l-0.563-0.201c0.101-0.235 0.235-0.418 0.404-0.549s0.353-0.224 0.553-0.277c0.2-0.053 0.398-0.079 0.592-0.079 0.124 0 0.267 0.014 0.429 0.044s0.318 0.089 0.47 0.18c0.152 0.090 0.277 0.227 0.378 0.41s0.151 0.428 0.151 0.734v2.545h-0.594v-0.523h-0.030c-0.041 0.084-0.107 0.174-0.201 0.269s-0.218 0.177-0.374 0.244c-0.156 0.067-0.346 0.101-0.571 0.101zM94.111 9.797c0.235 0 0.433-0.046 0.595-0.138s0.284-0.211 0.367-0.357c0.083-0.146 0.124-0.299 0.124-0.46v-0.543c-0.025 0.030-0.080 0.058-0.165 0.082s-0.182 0.045-0.292 0.063c-0.11 0.018-0.216 0.033-0.32 0.045s-0.186 0.023-0.25 0.032c-0.154 0.020-0.298 0.052-0.431 0.097s-0.241 0.111-0.322 0.199c-0.081 0.088-0.122 0.207-0.122 0.358 0 0.206 0.077 0.362 0.23 0.467s0.348 0.157 0.584 0.157z"></path>
<path fill="#fff" style="fill: var(--color1, #fff)" d="M97.895 10.24h-0.594v-5.149h0.594v5.149z"></path>
<path fill="#fff" style="fill: var(--color1, #fff)" d="M67.269 14.874c-0.030-0.255-0.152-0.453-0.367-0.593s-0.478-0.211-0.789-0.211c-0.228 0-0.427 0.037-0.597 0.11s-0.302 0.175-0.397 0.304c-0.095 0.129-0.142 0.276-0.142 0.44 0 0.137 0.033 0.255 0.1 0.353s0.151 0.179 0.255 0.244c0.104 0.064 0.213 0.117 0.327 0.158s0.218 0.074 0.314 0.099l0.523 0.141c0.134 0.035 0.283 0.084 0.449 0.146s0.324 0.146 0.475 0.253c0.152 0.106 0.277 0.243 0.376 0.409s0.148 0.37 0.148 0.611c0 0.278-0.072 0.53-0.218 0.754s-0.356 0.404-0.634 0.536c-0.277 0.133-0.614 0.199-1.010 0.199-0.369 0-0.687-0.060-0.956-0.178s-0.48-0.285-0.634-0.498c-0.153-0.213-0.241-0.46-0.26-0.742h0.643c0.017 0.195 0.083 0.355 0.198 0.482s0.261 0.22 0.438 0.281c0.177 0.061 0.367 0.092 0.571 0.092 0.238 0 0.452-0.039 0.641-0.117s0.34-0.187 0.45-0.327c0.111-0.14 0.166-0.304 0.166-0.492 0-0.171-0.047-0.31-0.143-0.417-0.095-0.107-0.221-0.194-0.377-0.262s-0.324-0.126-0.505-0.176l-0.634-0.181c-0.402-0.116-0.721-0.281-0.955-0.495-0.235-0.215-0.352-0.495-0.352-0.842 0-0.288 0.078-0.54 0.235-0.755s0.367-0.383 0.634-0.503c0.266-0.12 0.563-0.18 0.891-0.18 0.332 0 0.627 0.059 0.885 0.177s0.463 0.279 0.615 0.484c0.152 0.205 0.232 0.437 0.24 0.697h-0.603z"></path>
<path fill="#fff" style="fill: var(--color1, #fff)" d="M70.993 15.377h-2.002v-0.503h2.002zM69.574 13.949h0.594v3.681c0 0.167 0.025 0.293 0.074 0.376s0.113 0.138 0.192 0.166c0.078 0.028 0.16 0.041 0.248 0.041 0.065 0 0.119-0.004 0.16-0.012s0.076-0.014 0.101-0.019l0.121 0.533c-0.040 0.015-0.097 0.031-0.169 0.047s-0.164 0.024-0.274 0.024c-0.168 0-0.332-0.036-0.492-0.108s-0.293-0.182-0.398-0.329c-0.104-0.148-0.157-0.333-0.157-0.558v-3.841z"></path>
<path fill="#fff" style="fill: var(--color1, #fff)" d="M73.841 18.817c-0.348 0-0.654-0.083-0.916-0.249s-0.467-0.398-0.614-0.696c-0.147-0.298-0.22-0.647-0.22-1.046 0-0.402 0.073-0.753 0.22-1.054s0.351-0.533 0.614-0.699c0.262-0.166 0.568-0.249 0.916-0.249s0.654 0.083 0.917 0.249c0.262 0.166 0.467 0.399 0.613 0.699s0.22 0.651 0.22 1.054c0 0.399-0.073 0.748-0.22 1.046s-0.351 0.53-0.613 0.696c-0.262 0.167-0.568 0.249-0.917 0.249zM73.841 18.284c0.265 0 0.483-0.068 0.654-0.204s0.297-0.315 0.38-0.535c0.082-0.221 0.123-0.461 0.123-0.719s-0.041-0.499-0.123-0.722c-0.082-0.223-0.209-0.403-0.38-0.541s-0.389-0.206-0.654-0.206c-0.264 0-0.482 0.069-0.653 0.206s-0.297 0.318-0.38 0.541c-0.082 0.223-0.123 0.464-0.123 0.722s0.041 0.498 0.123 0.719c0.082 0.221 0.208 0.399 0.38 0.535s0.389 0.204 0.653 0.204z"></path>
<path fill="#fff" style="fill: var(--color1, #fff)" d="M76.921 18.736v-3.862h0.574v0.583h0.040c0.071-0.191 0.198-0.346 0.383-0.465s0.392-0.179 0.623-0.179c0.044 0 0.098 0.001 0.164 0.003s0.115 0.004 0.149 0.008v0.603c-0.020-0.005-0.066-0.013-0.137-0.024s-0.147-0.016-0.225-0.016c-0.187 0-0.354 0.039-0.501 0.117s-0.262 0.185-0.347 0.322c-0.084 0.137-0.127 0.292-0.127 0.467v2.444h-0.594z"></path>
<path fill="#fff" style="fill: var(--color1, #fff)" d="M81.117 18.827c-0.245 0-0.467-0.047-0.666-0.14s-0.358-0.228-0.476-0.404c-0.117-0.177-0.175-0.391-0.175-0.643 0-0.221 0.044-0.401 0.131-0.539s0.204-0.247 0.349-0.326c0.146-0.079 0.307-0.138 0.484-0.177s0.355-0.071 0.534-0.094c0.235-0.030 0.425-0.053 0.572-0.069s0.254-0.043 0.322-0.082c0.068-0.038 0.102-0.105 0.102-0.201v-0.020c0-0.248-0.068-0.441-0.202-0.578s-0.339-0.206-0.613-0.206c-0.283 0-0.505 0.062-0.666 0.186s-0.274 0.257-0.339 0.397l-0.564-0.201c0.101-0.235 0.235-0.418 0.404-0.549s0.352-0.224 0.553-0.277c0.2-0.053 0.398-0.079 0.592-0.079 0.124 0 0.267 0.015 0.429 0.044s0.318 0.089 0.47 0.18c0.152 0.090 0.277 0.227 0.378 0.409s0.151 0.428 0.151 0.734v2.544h-0.594v-0.523h-0.030c-0.040 0.084-0.107 0.173-0.201 0.269s-0.218 0.177-0.375 0.244c-0.156 0.067-0.346 0.101-0.571 0.101zM81.208 18.294c0.235 0 0.433-0.046 0.595-0.138s0.284-0.211 0.367-0.357c0.082-0.146 0.124-0.299 0.124-0.46v-0.543c-0.025 0.030-0.080 0.057-0.165 0.082s-0.182 0.045-0.292 0.063c-0.11 0.018-0.216 0.033-0.32 0.045s-0.186 0.023-0.25 0.031c-0.154 0.020-0.298 0.052-0.431 0.097s-0.241 0.111-0.322 0.199c-0.081 0.088-0.122 0.207-0.122 0.358 0 0.206 0.077 0.361 0.23 0.466s0.348 0.157 0.584 0.157z"></path>
<path fill="#fff" style="fill: var(--color1, #fff)" d="M85.958 20.265c-0.287 0-0.533-0.036-0.74-0.109s-0.377-0.168-0.514-0.287c-0.136-0.118-0.245-0.244-0.326-0.378l0.473-0.332c0.054 0.070 0.122 0.151 0.204 0.243s0.195 0.171 0.338 0.238c0.143 0.068 0.332 0.102 0.565 0.102 0.312 0 0.569-0.076 0.772-0.226s0.305-0.387 0.305-0.709v-0.784h-0.051c-0.044 0.070-0.105 0.157-0.185 0.26s-0.194 0.194-0.342 0.274c-0.148 0.080-0.348 0.12-0.6 0.12-0.312 0-0.591-0.073-0.839-0.221s-0.442-0.362-0.586-0.644c-0.143-0.281-0.215-0.623-0.215-1.026 0-0.396 0.069-0.741 0.208-1.035s0.333-0.522 0.581-0.684c0.248-0.162 0.534-0.243 0.86-0.243 0.251 0 0.451 0.041 0.6 0.124s0.262 0.177 0.342 0.282c0.080 0.105 0.141 0.191 0.185 0.257h0.061v-0.613h0.573v3.972c0 0.332-0.075 0.602-0.225 0.811s-0.351 0.362-0.604 0.46c-0.252 0.098-0.533 0.147-0.841 0.147zM85.937 18.143c0.238 0 0.44-0.055 0.604-0.163s0.289-0.266 0.374-0.47c0.085-0.204 0.128-0.449 0.128-0.734 0-0.278-0.042-0.524-0.126-0.737s-0.207-0.38-0.372-0.501c-0.165-0.12-0.367-0.181-0.609-0.181-0.251 0-0.46 0.064-0.627 0.191s-0.292 0.299-0.374 0.513c-0.083 0.214-0.125 0.452-0.125 0.714 0 0.268 0.043 0.505 0.127 0.71s0.21 0.366 0.377 0.483c0.167 0.117 0.374 0.175 0.622 0.175z"></path>
<path fill="#fff" style="fill: var(--color1, #fff)" d="M90.757 18.817c-0.372 0-0.693-0.083-0.961-0.248s-0.476-0.396-0.621-0.694c-0.145-0.297-0.217-0.644-0.217-1.039s0.072-0.745 0.217-1.047c0.145-0.303 0.348-0.539 0.609-0.709s0.565-0.255 0.914-0.255c0.2 0 0.399 0.033 0.596 0.101s0.374 0.176 0.536 0.326c0.16 0.15 0.289 0.348 0.384 0.595s0.143 0.55 0.143 0.91v0.252h-2.977v-0.513h2.374c0-0.218-0.043-0.412-0.13-0.584s-0.209-0.306-0.367-0.405c-0.159-0.099-0.345-0.148-0.559-0.148-0.237 0-0.441 0.058-0.613 0.175s-0.303 0.268-0.396 0.454c-0.092 0.186-0.138 0.386-0.138 0.598v0.342c0 0.292 0.051 0.538 0.153 0.741 0.101 0.202 0.242 0.355 0.423 0.46s0.391 0.157 0.631 0.157c0.156 0 0.297-0.022 0.424-0.067s0.236-0.111 0.328-0.201c0.092-0.090 0.163-0.202 0.213-0.336l0.574 0.161c-0.060 0.195-0.162 0.365-0.304 0.512s-0.319 0.261-0.528 0.342c-0.21 0.081-0.445 0.122-0.707 0.122z"></path>
<path fill="#fff" style="fill: var(--color1, #fff)" d="M67.269 23.371c-0.030-0.255-0.152-0.453-0.367-0.594s-0.478-0.211-0.789-0.211c-0.228 0-0.427 0.037-0.597 0.111s-0.302 0.175-0.397 0.304c-0.095 0.129-0.142 0.276-0.142 0.44 0 0.138 0.033 0.255 0.1 0.354s0.151 0.179 0.255 0.244c0.104 0.064 0.213 0.118 0.327 0.159s0.218 0.074 0.314 0.099l0.523 0.141c0.134 0.035 0.283 0.084 0.449 0.146s0.324 0.147 0.475 0.253c0.152 0.106 0.277 0.242 0.376 0.409s0.148 0.369 0.148 0.611c0 0.278-0.072 0.53-0.218 0.754s-0.356 0.403-0.634 0.535c-0.277 0.133-0.614 0.199-1.010 0.199-0.369 0-0.687-0.059-0.956-0.178s-0.48-0.285-0.634-0.498c-0.153-0.213-0.241-0.46-0.26-0.742h0.643c0.017 0.194 0.083 0.355 0.198 0.482s0.261 0.22 0.438 0.282c0.177 0.061 0.367 0.092 0.571 0.092 0.238 0 0.452-0.039 0.641-0.117s0.34-0.187 0.45-0.327c0.111-0.14 0.166-0.304 0.166-0.492 0-0.171-0.047-0.31-0.143-0.417-0.095-0.107-0.221-0.195-0.377-0.262s-0.324-0.126-0.505-0.176l-0.634-0.181c-0.402-0.116-0.721-0.28-0.955-0.495-0.235-0.214-0.352-0.495-0.352-0.842 0-0.288 0.078-0.54 0.235-0.756s0.367-0.383 0.634-0.503c0.266-0.12 0.563-0.18 0.891-0.18 0.332 0 0.627 0.059 0.885 0.177s0.463 0.28 0.615 0.484c0.152 0.205 0.232 0.436 0.24 0.697h-0.603z"></path>
<path fill="#fff" style="fill: var(--color1, #fff)" d="M69.695 28.681c-0.101 0-0.19-0.008-0.269-0.024s-0.134-0.031-0.164-0.046l0.151-0.523c0.144 0.037 0.271 0.050 0.382 0.040s0.209-0.059 0.296-0.147c0.086-0.088 0.166-0.23 0.237-0.426l0.111-0.302-1.428-3.882h0.644l1.066 3.077h0.040l1.066-3.077h0.644l-1.64 4.425c-0.073 0.199-0.165 0.365-0.274 0.497s-0.235 0.229-0.378 0.293c-0.144 0.064-0.305 0.096-0.484 0.096z"></path>
<path fill="#fff" style="fill: var(--color1, #fff)" d="M76.416 24.236l-0.533 0.151c-0.033-0.089-0.082-0.176-0.147-0.26s-0.152-0.155-0.263-0.21c-0.11-0.056-0.252-0.083-0.424-0.083-0.236 0-0.433 0.054-0.59 0.162-0.156 0.109-0.235 0.245-0.235 0.411 0 0.148 0.053 0.264 0.161 0.349s0.275 0.157 0.503 0.213l0.573 0.141c0.345 0.084 0.603 0.212 0.772 0.383s0.254 0.393 0.254 0.663c0 0.221-0.063 0.419-0.19 0.594s-0.303 0.312-0.529 0.412c-0.226 0.101-0.49 0.151-0.79 0.151-0.394 0-0.719-0.086-0.978-0.256s-0.422-0.421-0.491-0.749l0.564-0.141c0.053 0.208 0.155 0.364 0.305 0.468s0.347 0.156 0.589 0.156c0.277 0 0.497-0.059 0.66-0.178 0.163-0.118 0.245-0.26 0.245-0.426 0-0.134-0.047-0.247-0.141-0.338s-0.238-0.159-0.433-0.205l-0.643-0.151c-0.354-0.084-0.614-0.214-0.779-0.391s-0.248-0.398-0.248-0.665c0-0.218 0.062-0.411 0.185-0.579s0.292-0.299 0.505-0.395 0.456-0.143 0.728-0.143c0.382 0 0.683 0.084 0.901 0.251s0.374 0.389 0.466 0.664z"></path>
<path fill="#fff" style="fill: var(--color1, #fff)" d="M79.486 23.873h-2.001v-0.502h2.001zM78.067 22.445h0.594v3.681c0 0.167 0.025 0.293 0.074 0.376s0.114 0.138 0.192 0.166c0.078 0.027 0.16 0.042 0.248 0.042 0.065 0 0.119-0.004 0.161-0.012s0.075-0.013 0.101-0.019l0.121 0.533c-0.040 0.015-0.097 0.031-0.169 0.046s-0.164 0.024-0.274 0.024c-0.168 0-0.332-0.036-0.491-0.108s-0.293-0.182-0.397-0.329c-0.105-0.147-0.158-0.333-0.158-0.558v-3.841z"></path>
<path fill="#fff" style="fill: var(--color1, #fff)" d="M82.385 27.313c-0.372 0-0.693-0.083-0.962-0.247s-0.476-0.396-0.621-0.694c-0.145-0.297-0.217-0.644-0.217-1.040s0.072-0.744 0.217-1.047c0.145-0.302 0.348-0.539 0.609-0.709s0.565-0.255 0.914-0.255c0.2 0 0.399 0.033 0.596 0.1s0.374 0.176 0.536 0.326c0.16 0.15 0.289 0.348 0.385 0.595s0.143 0.55 0.143 0.91v0.251h-2.977v-0.513h2.374c0-0.218-0.043-0.412-0.13-0.583s-0.209-0.306-0.367-0.405c-0.158-0.099-0.345-0.148-0.559-0.148-0.237 0-0.441 0.058-0.612 0.175s-0.304 0.267-0.396 0.454c-0.092 0.186-0.139 0.386-0.139 0.598v0.342c0 0.292 0.051 0.539 0.152 0.741s0.242 0.355 0.424 0.46c0.181 0.105 0.391 0.157 0.63 0.157 0.156 0 0.297-0.022 0.424-0.067s0.236-0.111 0.328-0.201c0.092-0.090 0.163-0.201 0.213-0.336l0.574 0.161c-0.060 0.195-0.162 0.365-0.304 0.512s-0.319 0.261-0.528 0.342c-0.21 0.081-0.445 0.122-0.707 0.122z"></path>
<path fill="#fff" style="fill: var(--color1, #fff)" d="M85.314 27.233v-3.862h0.573v0.603h0.050c0.080-0.206 0.21-0.367 0.39-0.481s0.395-0.172 0.646-0.172c0.255 0 0.467 0.057 0.638 0.172s0.303 0.275 0.398 0.481h0.040c0.099-0.199 0.247-0.359 0.445-0.477s0.435-0.177 0.711-0.177c0.345 0 0.628 0.108 0.847 0.323s0.33 0.55 0.33 1.004v2.585h-0.594v-2.585c0-0.285-0.078-0.489-0.234-0.611s-0.339-0.183-0.55-0.183c-0.272 0-0.482 0.081-0.631 0.245s-0.224 0.37-0.224 0.62v2.515h-0.603v-2.645c0-0.22-0.072-0.397-0.214-0.532s-0.326-0.202-0.551-0.202c-0.154 0-0.298 0.041-0.431 0.123s-0.241 0.196-0.322 0.341c-0.081 0.145-0.122 0.312-0.122 0.502v2.414h-0.594z"></path>
<path fill="#fff" style="fill: var(--color1, #fff)" d="M28.91 12.083c-0.057-0.706-0.32-1.257-0.789-1.653s-1.181-0.593-2.135-0.593c-0.608 0-1.104 0.072-1.489 0.217s-0.669 0.341-0.853 0.588c-0.184 0.247-0.279 0.53-0.286 0.848-0.014 0.261 0.033 0.496 0.143 0.704s0.284 0.396 0.524 0.562c0.24 0.166 0.547 0.316 0.922 0.45s0.819 0.254 1.335 0.36l1.78 0.381c1.201 0.254 2.228 0.59 3.083 1.006s1.554 0.906 2.098 1.467c0.544 0.562 0.945 1.192 1.203 1.891s0.39 1.462 0.397 2.288c-0.007 1.427-0.363 2.634-1.070 3.623s-1.715 1.741-3.025 2.257c-1.31 0.516-2.884 0.773-4.72 0.773-1.886 0-3.53-0.279-4.932-0.837s-2.49-1.418-3.263-2.58c-0.773-1.162-1.164-2.65-1.171-4.466h5.594c0.035 0.664 0.201 1.222 0.498 1.674s0.715 0.794 1.255 1.027c0.54 0.233 1.185 0.35 1.934 0.35 0.629 0 1.155-0.078 1.579-0.233s0.745-0.371 0.964-0.646c0.219-0.275 0.332-0.59 0.339-0.943-0.007-0.332-0.115-0.623-0.323-0.874s-0.549-0.477-1.022-0.678c-0.473-0.201-1.112-0.39-1.917-0.567l-2.162-0.466c-1.921-0.417-3.434-1.114-4.54-2.092s-1.654-2.315-1.647-4.010c-0.007-1.377 0.362-2.583 1.107-3.618s1.78-1.842 3.104-2.421c1.324-0.579 2.844-0.869 4.561-0.869 1.751 0 3.266 0.293 4.545 0.879s2.265 1.411 2.961 2.474c0.696 1.063 1.047 2.304 1.055 3.724h-5.637z"></path>
<path fill="#fff" style="fill: var(--color1, #fff)" d="M50.277 12.083c-0.057-0.706-0.32-1.257-0.789-1.653s-1.182-0.593-2.135-0.593c-0.607 0-1.103 0.072-1.488 0.217s-0.67 0.341-0.853 0.588c-0.184 0.247-0.279 0.53-0.286 0.848-0.014 0.261 0.033 0.496 0.143 0.704s0.284 0.396 0.524 0.562c0.241 0.166 0.548 0.316 0.922 0.45s0.819 0.254 1.335 0.36l1.78 0.381c1.201 0.254 2.228 0.59 3.083 1.006s1.554 0.906 2.098 1.467 0.945 1.192 1.203 1.891c0.258 0.699 0.39 1.462 0.397 2.288-0.007 1.427-0.363 2.634-1.070 3.623s-1.714 1.741-3.025 2.257c-1.311 0.516-2.884 0.773-4.72 0.773-1.886 0-3.53-0.279-4.932-0.837s-2.489-1.418-3.263-2.58c-0.774-1.162-1.164-2.65-1.171-4.466h5.594c0.035 0.664 0.201 1.222 0.498 1.674s0.715 0.794 1.255 1.027c0.54 0.233 1.185 0.35 1.934 0.35 0.628 0 1.154-0.078 1.579-0.233s0.745-0.371 0.964-0.646c0.219-0.275 0.332-0.59 0.339-0.943-0.007-0.332-0.115-0.623-0.323-0.874s-0.549-0.477-1.022-0.678c-0.473-0.201-1.113-0.39-1.918-0.567l-2.161-0.466c-1.921-0.417-3.435-1.114-4.54-2.092s-1.654-2.315-1.647-4.010c-0.007-1.377 0.362-2.583 1.107-3.618s1.78-1.842 3.104-2.421c1.324-0.579 2.844-0.869 4.561-0.869 1.752 0 3.266 0.293 4.545 0.879s2.265 1.411 2.961 2.474c0.696 1.063 1.047 2.304 1.054 3.724h-5.636z"></path>
<path fill="#fff" style="fill: var(--color1, #fff)" d="M4.522 5.303v21.697h8.403v-21.697zM5.618 6.399h6.212v12.973h-6.212v-12.973z"></path>
</symbol>
</defs>
</svg>
